<?xml version="1.0" encoding="UTF-8" standalone="no"?>
<!DOCTYPE svg PUBLIC "-//W3C//DTD SVG 1.1//EN"
 "http://www.w3.org/Graphics/SVG/1.1/DTD/svg11.dtd">
<!-- Generated by graphviz version 14.1.1 (20260118.1130)
 -->
<!-- Title: snakemake_dag Pages: 1 -->
<svg width="95pt" height="189pt"
 viewBox="0.00 0.00 95.00 189.00" xmlns="http://www.w3.org/2000/svg" xmlns:xlink="http://www.w3.org/1999/xlink">
<g id="graph0" class="graph" transform="scale(1 1) rotate(0) translate(4 184.5)">
<title>snakemake_dag</title>
<polygon fill="white" stroke="none" points="-4,4 -4,-184.5 90.5,-184.5 90.5,4 -4,4"/>
<!-- 0 -->
<g id="node1" class="node">
<title>0</title>
<path fill="none" stroke="#afd856" stroke-width="2" d="M74.5,-36C74.5,-36 12,-36 12,-36 6,-36 0,-30 0,-24 0,-24 0,-12 0,-12 0,-6 6,0 12,0 12,0 74.5,0 74.5,0 80.5,0 86.5,-6 86.5,-12 86.5,-12 86.5,-24 86.5,-24 86.5,-30 80.5,-36 74.5,-36"/>
<text xml:space="preserve" text-anchor="middle" x="43.25" y="-15.62" font-family="sans" font-size="10.00">samtools_index</text>
</g>
<!-- 1 -->
<g id="node2" class="node">
<title>1</title>
<path fill="none" stroke="#56d8a9" stroke-width="2" d="M71.5,-108C71.5,-108 15,-108 15,-108 9,-108 3,-102 3,-96 3,-96 3,-84 3,-84 3,-78 9,-72 15,-72 15,-72 71.5,-72 71.5,-72 77.5,-72 83.5,-78 83.5,-84 83.5,-84 83.5,-96 83.5,-96 83.5,-102 77.5,-108 71.5,-108"/>
<text xml:space="preserve" text-anchor="middle" x="43.25" y="-87.62" font-family="sans" font-size="10.00">samtools_sort</text>
</g>
<!-- 1&#45;&gt;0 -->
<g id="edge1" class="edge">
<title>1&#45;&gt;0</title>
<path fill="none" stroke="grey" stroke-width="2" d="M43.25,-71.34C43.25,-64.75 43.25,-57.08 43.25,-49.67"/>
<polygon fill="grey" stroke="grey" stroke-width="2" points="46.75,-49.93 43.25,-39.93 39.75,-49.93 46.75,-49.93"/>
</g>
<!-- 2 -->
<g id="node3" class="node">
<title>2</title>
<path fill="none" stroke="#d85656" stroke-width="2" stroke-dasharray="5,2" d="M61.75,-180.5C61.75,-180.5 24.75,-180.5 24.75,-180.5 18.75,-180.5 12.75,-174.5 12.75,-168.5 12.75,-168.5 12.75,-156 12.75,-156 12.75,-150 18.75,-144 24.75,-144 24.75,-144 61.75,-144 61.75,-144 67.75,-144 73.75,-150 73.75,-156 73.75,-156 73.75,-168.5 73.75,-168.5 73.75,-174.5 67.75,-180.5 61.75,-180.5"/>
<text xml:space="preserve" text-anchor="middle" x="43.25" y="-167" font-family="sans" font-size="10.00">bwa_map</text>
<text xml:space="preserve" text-anchor="middle" x="43.25" y="-152.75" font-family="sans" font-size="10.00">sample: A</text>
</g>
<!-- 2&#45;&gt;1 -->
<g id="edge2" class="edge">
<title>2&#45;&gt;1</title>
<path fill="none" stroke="grey" stroke-width="2" d="M43.25,-143.16C43.25,-136.64 43.25,-129.08 43.25,-121.77"/>
<polygon fill="grey" stroke="grey" stroke-width="2" points="46.75,-121.81 43.25,-111.81 39.75,-121.81 46.75,-121.81"/>
</g>
</g>
</svg>
