<?xml version="1.0" encoding="UTF-8" standalone="no"?>
<!DOCTYPE svg PUBLIC "-//W3C//DTD SVG 1.1//EN"
 "http://www.w3.org/Graphics/SVG/1.1/DTD/svg11.dtd">
<!-- Generated by graphviz version 14.1.1 (20260118.1130)
 -->
<!-- Title: snakemake_dag Pages: 1 -->
<svg width="259pt" height="261pt"
 viewBox="0.00 0.00 259.00 261.00" xmlns="http://www.w3.org/2000/svg" xmlns:xlink="http://www.w3.org/1999/xlink">
<g id="graph0" class="graph" transform="scale(1 1) rotate(0) translate(4 256.5)">
<title>snakemake_dag</title>
<polygon fill="white" stroke="none" points="-4,4 -4,-256.5 254.5,-256.5 254.5,4 -4,4"/>
<!-- 0 -->
<g id="node1" class="node">
<title>0</title>
<path fill="none" stroke="#d85656" stroke-width="2" d="M124,-36C124,-36 76.5,-36 76.5,-36 70.5,-36 64.5,-30 64.5,-24 64.5,-24 64.5,-12 64.5,-12 64.5,-6 70.5,0 76.5,0 76.5,0 124,0 124,0 130,0 136,-6 136,-12 136,-12 136,-24 136,-24 136,-30 130,-36 124,-36"/>
<text xml:space="preserve" text-anchor="middle" x="100.25" y="-15.62" font-family="sans" font-size="10.00">bcftools_call</text>
</g>
<!-- 1 -->
<g id="node2" class="node">
<title>1</title>
<path fill="none" stroke="#56d8d8" stroke-width="2" d="M68.5,-180C68.5,-180 12,-180 12,-180 6,-180 0,-174 0,-168 0,-168 0,-156 0,-156 0,-150 6,-144 12,-144 12,-144 68.5,-144 68.5,-144 74.5,-144 80.5,-150 80.5,-156 80.5,-156 80.5,-168 80.5,-168 80.5,-174 74.5,-180 68.5,-180"/>
<text xml:space="preserve" text-anchor="middle" x="40.25" y="-159.62" font-family="sans" font-size="10.00">samtools_sort</text>
</g>
<!-- 1&#45;&gt;0 -->
<g id="edge1" class="edge">
<title>1&#45;&gt;0</title>
<path fill="none" stroke="grey" stroke-width="2" d="M26.82,-143.04C14.65,-124.39 0.44,-94.81 13.25,-72 21.88,-56.64 36.96,-45.21 52.17,-36.98"/>
<polygon fill="grey" stroke="grey" stroke-width="2" points="53.58,-40.18 61.01,-32.63 50.49,-33.9 53.58,-40.18"/>
</g>
<!-- 5 -->
<g id="node6" class="node">
<title>5</title>
<path fill="none" stroke="#59d856" stroke-width="2" d="M96.5,-108C96.5,-108 34,-108 34,-108 28,-108 22,-102 22,-96 22,-96 22,-84 22,-84 22,-78 28,-72 34,-72 34,-72 96.5,-72 96.5,-72 102.5,-72 108.5,-78 108.5,-84 108.5,-84 108.5,-96 108.5,-96 108.5,-102 102.5,-108 96.5,-108"/>
<text xml:space="preserve" text-anchor="middle" x="65.25" y="-87.62" font-family="sans" font-size="10.00">samtools_index</text>
</g>
<!-- 1&#45;&gt;5 -->
<g id="edge7" class="edge">
<title>1&#45;&gt;5</title>
<path fill="none" stroke="grey" stroke-width="2" d="M46.56,-143.34C48.97,-136.59 51.79,-128.69 54.5,-121.11"/>
<polygon fill="grey" stroke="grey" stroke-width="2" points="57.77,-122.35 57.84,-111.75 51.18,-119.99 57.77,-122.35"/>
</g>
<!-- 2 -->
<g id="node3" class="node">
<title>2</title>
<path fill="none" stroke="#d6d856" stroke-width="2" stroke-dasharray="5,2" d="M58.75,-252.5C58.75,-252.5 21.75,-252.5 21.75,-252.5 15.75,-252.5 9.75,-246.5 9.75,-240.5 9.75,-240.5 9.75,-228 9.75,-228 9.75,-222 15.75,-216 21.75,-216 21.75,-216 58.75,-216 58.75,-216 64.75,-216 70.75,-222 70.75,-228 70.75,-228 70.75,-240.5 70.75,-240.5 70.75,-246.5 64.75,-252.5 58.75,-252.5"/>
<text xml:space="preserve" text-anchor="middle" x="40.25" y="-239" font-family="sans" font-size="10.00">bwa_map</text>
<text xml:space="preserve" text-anchor="middle" x="40.25" y="-224.75" font-family="sans" font-size="10.00">sample: A</text>
</g>
<!-- 2&#45;&gt;1 -->
<g id="edge5" class="edge">
<title>2&#45;&gt;1</title>
<path fill="none" stroke="grey" stroke-width="2" d="M40.25,-215.16C40.25,-208.64 40.25,-201.08 40.25,-193.77"/>
<polygon fill="grey" stroke="grey" stroke-width="2" points="43.75,-193.81 40.25,-183.81 36.75,-193.81 43.75,-193.81"/>
</g>
<!-- 3 -->
<g id="node4" class="node">
<title>3</title>
<path fill="none" stroke="#56d8d8" stroke-width="2" d="M188.5,-180C188.5,-180 132,-180 132,-180 126,-180 120,-174 120,-168 120,-168 120,-156 120,-156 120,-150 126,-144 132,-144 132,-144 188.5,-144 188.5,-144 194.5,-144 200.5,-150 200.5,-156 200.5,-156 200.5,-168 200.5,-168 200.5,-174 194.5,-180 188.5,-180"/>
<text xml:space="preserve" text-anchor="middle" x="160.25" y="-159.62" font-family="sans" font-size="10.00">samtools_sort</text>
</g>
<!-- 3&#45;&gt;0 -->
<g id="edge2" class="edge">
<title>3&#45;&gt;0</title>
<path fill="none" stroke="grey" stroke-width="2" d="M152.65,-143.02C142.6,-119.22 124.75,-76.97 112.71,-48.48"/>
<polygon fill="grey" stroke="grey" stroke-width="2" points="116.08,-47.48 108.97,-39.63 109.63,-50.2 116.08,-47.48"/>
</g>
<!-- 6 -->
<g id="node7" class="node">
<title>6</title>
<path fill="none" stroke="#59d856" stroke-width="2" d="M238.5,-108C238.5,-108 176,-108 176,-108 170,-108 164,-102 164,-96 164,-96 164,-84 164,-84 164,-78 170,-72 176,-72 176,-72 238.5,-72 238.5,-72 244.5,-72 250.5,-78 250.5,-84 250.5,-84 250.5,-96 250.5,-96 250.5,-102 244.5,-108 238.5,-108"/>
<text xml:space="preserve" text-anchor="middle" x="207.25" y="-87.62" font-family="sans" font-size="10.00">samtools_index</text>
</g>
<!-- 3&#45;&gt;6 -->
<g id="edge8" class="edge">
<title>3&#45;&gt;6</title>
<path fill="none" stroke="grey" stroke-width="2" d="M172.11,-143.34C176.97,-136.1 182.72,-127.53 188.15,-119.45"/>
<polygon fill="grey" stroke="grey" stroke-width="2" points="190.87,-121.67 193.54,-111.41 185.06,-117.77 190.87,-121.67"/>
</g>
<!-- 4 -->
<g id="node5" class="node">
<title>4</title>
<path fill="none" stroke="#d6d856" stroke-width="2" d="M178.75,-252.5C178.75,-252.5 141.75,-252.5 141.75,-252.5 135.75,-252.5 129.75,-246.5 129.75,-240.5 129.75,-240.5 129.75,-228 129.75,-228 129.75,-222 135.75,-216 141.75,-216 141.75,-216 178.75,-216 178.75,-216 184.75,-216 190.75,-222 190.75,-228 190.75,-228 190.75,-240.5 190.75,-240.5 190.75,-246.5 184.75,-252.5 178.75,-252.5"/>
<text xml:space="preserve" text-anchor="middle" x="160.25" y="-239" font-family="sans" font-size="10.00">bwa_map</text>
<text xml:space="preserve" text-anchor="middle" x="160.25" y="-224.75" font-family="sans" font-size="10.00">sample: B</text>
</g>
<!-- 4&#45;&gt;3 -->
<g id="edge6" class="edge">
<title>4&#45;&gt;3</title>
<path fill="none" stroke="grey" stroke-width="2" d="M160.25,-215.16C160.25,-208.64 160.25,-201.08 160.25,-193.77"/>
<polygon fill="grey" stroke="grey" stroke-width="2" points="163.75,-193.81 160.25,-183.81 156.75,-193.81 163.75,-193.81"/>
</g>
<!-- 5&#45;&gt;0 -->
<g id="edge3" class="edge">
<title>5&#45;&gt;0</title>
<path fill="none" stroke="grey" stroke-width="2" d="M74.08,-71.34C77.58,-64.34 81.69,-56.12 85.61,-48.28"/>
<polygon fill="grey" stroke="grey" stroke-width="2" points="88.6,-50.12 89.95,-39.61 82.34,-46.99 88.6,-50.12"/>
</g>
<!-- 6&#45;&gt;0 -->
<g id="edge4" class="edge">
<title>6&#45;&gt;0</title>
<path fill="none" stroke="grey" stroke-width="2" d="M179.97,-71.15C167.27,-62.84 151.95,-52.82 138.14,-43.79"/>
<polygon fill="grey" stroke="grey" stroke-width="2" points="140.3,-41.02 130.01,-38.47 136.46,-46.87 140.3,-41.02"/>
</g>
</g>
</svg>
